<?xml version="1.0" standalone="no"?>
<!DOCTYPE svg PUBLIC "-//W3C//DTD SVG 20010904//EN"
 "http://www.w3.org/TR/2001/REC-SVG-20010904/DTD/svg10.dtd">
<svg version="1.0" xmlns="http://www.w3.org/2000/svg"
 width="464.000000pt" height="72.000000pt" viewBox="0 0 464.000000 72.000000"
 preserveAspectRatio="xMidYMid meet">

<g transform="translate(0.000000,72.000000) scale(0.100000,-0.100000)"
fill="#000000" stroke="none">
<path d="M0 360 l0 -360 2320 0 2320 0 0 360 0 360 -367 0 c-203 0 -385 -3
-405 -6 -32 -6 -35 -8 -23 -21 11 -11 19 -11 35 -3 14 8 26 8 41 -1 15 -8 24
-8 32 0 19 19 47 13 47 -10 0 -20 -3 -21 -66 -14 -36 3 -71 3 -77 -2 -7 -4
-75 -6 -152 -3 -87 3 -133 8 -122 14 9 4 17 13 17 19 0 7 -48 8 -150 4 -129
-6 -150 -5 -150 8 0 26 -72 19 -106 -10 -22 -20 -36 -25 -58 -20 -16 3 -51 5
-78 5 -60 0 -56 20 5 21 23 0 62 4 87 8 33 6 3 9 -108 10 -100 1 -151 -2 -147
-9 4 -6 -12 -10 -39 -10 -25 0 -46 5 -46 10 0 7 -100 9 -312 7 -343 -5 -330
-5 -505 -3 -76 1 -123 -3 -123 -9 0 -6 41 -9 105 -8 58 2 105 -1 105 -5 0 -5
60 -9 133 -9 72 -1 192 -5 266 -9 159 -9 148 -21 -27 -30 -64 -3 -121 -10
-126 -15 -13 -11 -28 -11 329 -10 165 1 323 -3 350 -8 28 -6 97 -12 155 -15
69 -4 109 -10 118 -20 11 -10 19 -11 38 -2 13 6 24 16 24 22 0 6 26 15 58 21
l57 10 -54 2 c-30 0 -51 4 -48 7 8 8 115 6 129 -2 5 -3 2 -14 -8 -25 -9 -11
-14 -22 -11 -26 10 -10 278 -4 312 7 23 8 12 9 -52 7 -46 -2 -83 0 -83 5 0 4
11 8 24 8 14 0 31 7 40 15 17 17 53 20 58 4 2 -6 32 -13 66 -16 34 -3 62 -9
62 -12 0 -4 -24 -13 -52 -21 -34 -9 -46 -15 -33 -18 33 -7 41 -21 19 -37 -15
-11 -16 -15 -4 -16 8 -1 18 -1 23 0 4 0 7 -4 7 -10 0 -6 -7 -9 -15 -6 -8 4
-17 2 -20 -2 -10 -17 57 -21 88 -6 21 10 34 12 41 5 5 -5 22 -10 37 -10 15 0
31 -4 34 -10 4 -6 -5 -10 -19 -10 -42 0 -30 -16 31 -39 31 -12 63 -31 70 -41
9 -12 26 -20 44 -20 16 0 29 -3 29 -7 0 -13 60 -43 85 -43 33 0 88 -48 82 -72
-6 -20 8 -34 18 -19 3 6 15 7 28 2 12 -4 46 -6 75 -5 29 1 55 -2 58 -7 3 -5 2
-9 -3 -8 -4 1 -46 1 -93 0 -95 -3 -96 -1 45 -56 80 -30 85 -34 45 -29 l-45 5
42 -18 c107 -46 37 -42 -132 8 -68 20 -102 24 -223 23 -103 0 -145 -3 -151
-12 -7 -12 -30 -6 -106 28 -37 16 -106 22 -267 22 -111 0 -164 -4 -174 -13
-11 -9 -18 -9 -26 -1 -7 7 -48 9 -117 6 -58 -2 -175 -6 -260 -9 -85 -2 -156
-6 -158 -8 -5 -6 183 -24 442 -42 121 -9 274 -20 339 -26 91 -7 121 -6 127 3
6 9 12 8 25 -3 13 -11 18 -11 21 -1 3 6 11 12 19 12 9 0 12 -4 9 -10 -3 -6 4
-10 17 -11 13 0 30 -2 38 -3 8 -2 89 -9 180 -16 91 -7 172 -17 180 -22 14 -8
-204 -4 -325 7 -27 3 -108 7 -180 10 -71 3 -157 8 -190 10 -33 3 -166 10 -295
15 -259 11 -399 18 -505 25 -38 3 -140 7 -225 11 -85 3 -168 8 -185 10 -43 6
-451 5 -575 -1 -58 -2 -177 -7 -265 -10 -88 -3 -212 -7 -275 -10 -197 -8 -416
-15 -640 -19 -245 -5 -167 4 203 24 119 6 227 13 240 15 12 2 115 7 229 10
114 4 206 10 203 14 -7 12 -659 13 -790 1 -133 -12 -350 -52 -339 -63 4 -4 -1
-7 -12 -8 -10 0 -44 -3 -74 -5 -30 -3 -73 0 -95 6 -136 38 -151 51 -122 101 9
17 17 37 17 44 0 17 25 26 38 13 6 -6 16 -7 29 0 10 6 30 8 44 5 15 -3 30 0
33 6 4 6 2 11 -4 11 -6 0 -9 4 -5 10 3 5 12 7 20 3 9 -3 27 3 42 12 28 19 24
25 -26 40 -20 6 -23 4 -18 -10 5 -12 2 -16 -11 -13 -9 2 -19 14 -21 28 -1 14
-8 28 -13 31 -6 4 -1 10 11 14 12 4 20 12 18 18 -4 12 -22 13 -91 6 -63 -6
-56 18 11 36 94 26 91 25 70 40 -18 13 -17 14 2 20 24 7 27 27 6 45 -12 10
-12 15 1 35 14 21 13 24 -8 39 -28 20 -58 21 -58 1 0 -20 -16 -19 -24 1 -9 23
-1 31 41 39 48 9 58 15 42 26 -23 15 9 29 37 17 27 -13 190 4 207 21 8 8 -53
11 -226 11 l-237 0 0 -360z m2735 290 c3 -5 -1 -10 -9 -10 -9 0 -16 5 -16 10
0 6 4 10 9 10 6 0 13 -4 16 -10z m295 0 c0 -5 -5 -10 -11 -10 -5 0 -7 5 -4 10
3 6 8 10 11 10 2 0 4 -4 4 -10z m72 -2 c-9 -9 -15 -9 -24 0 -9 9 -7 12 12 12
19 0 21 -3 12 -12z m868 -98 c0 -5 -12 -10 -27 -10 -22 0 -25 2 -13 10 20 13
40 13 40 0z"/>
<path d="M1744 711 c10 -15 64 -18 88 -5 21 12 18 13 -35 14 -32 0 -56 -4 -53
-9z"/>
<path d="M2460 570 c-10 -7 10 -10 65 -10 44 0 139 -2 210 -5 227 -7 295 -6
312 4 15 9 12 10 -17 11 -19 0 -152 2 -295 5 -157 3 -266 1 -275 -5z"/>
<path d="M3100 556 c-8 -8 -35 -18 -60 -21 -71 -10 -66 -21 9 -21 59 0 70 3
74 18 6 22 37 24 37 3 0 -8 5 -15 10 -15 6 0 13 -1 16 -2 4 -2 8 9 10 25 2 26
1 27 -40 27 -23 0 -48 -6 -56 -14z"/>
<path d="M2176 521 c-5 -7 3 -11 21 -11 22 0 25 -2 13 -10 -8 -5 -28 -10 -45
-10 -39 0 -66 -16 -39 -23 38 -9 440 11 465 24 9 5 78 9 153 10 82 0 134 5
130 10 -3 6 -128 9 -312 8 -169 -1 -323 1 -343 5 -24 5 -39 4 -43 -3z"/>
<path d="M2060 516 c0 -9 30 -14 35 -6 4 6 -3 10 -14 10 -12 0 -21 -2 -21 -4z"/>
<path d="M4010 330 c20 -13 40 -13 40 0 0 6 -12 10 -27 10 -22 0 -25 -2 -13
-10z"/>
<path d="M2519 236 c-2 -2 -152 -7 -334 -11 -181 -4 -341 -9 -355 -11 -14 -1
-41 -3 -60 -5 -32 -1 -30 -2 15 -10 53 -8 1293 -10 1326 -2 35 10 10 21 -38
17 -27 -2 -94 1 -151 7 -115 11 -396 22 -403 15z"/>
<path d="M3150 210 c0 -5 15 -10 33 -9 27 0 29 2 12 9 -28 12 -45 12 -45 0z"/>
</g>
</svg>
